<svg viewBox="0 0 288 288" fill="currentColor" xmlns="http://www.w3.org/2000/svg">
<path d="M99.9982 55.9968C99.9982 53.0793 101.157 50.2813 103.22 48.2183C105.283 46.1554 108.081 44.9964 110.999 44.9964H177.001C179.919 44.9964 182.717 46.1554 184.779 48.2183C186.842 50.2813 188.001 53.0793 188.001 55.9968V61.497H199.002V50.4966C199.002 46.1204 197.263 41.9234 194.169 38.8289C191.074 35.7345 186.877 33.996 182.501 33.996H105.498C101.122 33.996 96.9252 35.7345 93.8308 38.8289C90.7363 41.9234 88.9978 46.1204 88.9978 50.4966V61.497H99.9982V55.9968ZM248.504 72.4974H39.496C38.0373 72.4974 36.6383 73.0769 35.6068 74.1084C34.5753 75.1399 33.9958 76.5389 33.9958 77.9976C33.9958 79.4563 34.5753 80.8553 35.6068 81.8868C36.6383 82.9183 38.0373 83.4978 39.496 83.4978H61.4968V237.503C61.4968 241.88 63.2353 246.077 66.3298 249.171C69.4242 252.266 73.6212 254.004 77.9974 254.004H210.002C214.378 254.004 218.575 252.266 221.67 249.171C224.764 246.077 226.503 241.88 226.503 237.503V83.4978H248.504C249.962 83.4978 251.361 82.9183 252.393 81.8868C253.424 80.8553 254.004 79.4563 254.004 77.9976C254.004 76.5389 253.424 75.1399 252.393 74.1084C251.361 73.0769 249.962 72.4974 248.504 72.4974ZM110.999 199.002C110.999 200.461 110.419 201.86 109.388 202.891C108.356 203.923 106.957 204.502 105.498 204.502C104.04 204.502 102.641 203.923 101.609 202.891C100.578 201.86 99.9982 200.461 99.9982 199.002V121.999C99.9982 120.54 100.578 119.141 101.609 118.11C102.641 117.078 104.04 116.499 105.498 116.499C106.957 116.499 108.356 117.078 109.388 118.11C110.419 119.141 110.999 120.54 110.999 121.999V199.002ZM149.5 210.002C149.5 211.461 148.921 212.86 147.889 213.892C146.858 214.923 145.459 215.503 144 215.503C142.541 215.503 141.142 214.923 140.111 213.892C139.079 212.86 138.5 211.461 138.5 210.002V110.999C138.5 109.54 139.079 108.141 140.111 107.11C141.142 106.078 142.541 105.499 144 105.499C145.459 105.499 146.858 106.078 147.889 107.11C148.921 108.141 149.5 109.54 149.5 110.999V210.002ZM188.001 199.002C188.001 200.461 187.422 201.86 186.39 202.891C185.359 203.923 183.96 204.502 182.501 204.502C181.043 204.502 179.643 203.923 178.612 202.891C177.581 201.86 177.001 200.461 177.001 199.002V121.999C177.001 120.54 177.581 119.141 178.612 118.11C179.643 117.078 181.043 116.499 182.501 116.499C183.96 116.499 185.359 117.078 186.39 118.11C187.422 119.141 188.001 120.54 188.001 121.999V199.002Z" fill="currentColor"/>
</svg>
